<svg viewBox="0 0 1300 1000" xmlns="http://www.w3.org/2000/svg">
  <defs>
    <style>
      .module-box { fill: #e3f2fd; stroke: #1976d2; stroke-width: 2; }
      .process-box { fill: #fff3e0; stroke: #f57c00; stroke-width: 2; }
      .interface-box { fill: #f3e5f5; stroke: #7b1fa2; stroke-width: 2; }
      .data-box { fill: #e8f5e9; stroke: #388e3c; stroke-width: 2; }
      .agent-box { fill: #e8eaf6; stroke: #3949ab; stroke-width: 2; }
      .arrow { stroke: #424242; stroke-width: 2; fill: none; marker-end: url(#arrowhead); }
      .arrow-bi { stroke: #d32f2f; stroke-width: 2; fill: none; marker-end: url(#arrowhead-red); marker-start: url(#arrowhead-red-start); }
      .arrow-dash { stroke: #424242; stroke-width: 1.5; fill: none; stroke-dasharray: 6 3; marker-end: url(#arrowhead); }
      .label-text { font-family: Arial, sans-serif; font-size: 13px; fill: #212121; font-weight: 500; }
      .small-text { font-family: Arial, sans-serif; font-size: 11px; fill: #424242; }
      .section-label { font-family: Arial, sans-serif; font-size: 11px; fill: #3949ab; font-style: italic; }
      .dashed-container { fill: none; stroke: #9e9e9e; stroke-width: 1.5; stroke-dasharray: 6 3; }
    </style>
    <marker id="arrowhead" markerWidth="10" markerHeight="10" refX="9" refY="3" orient="auto">
      <polygon points="0 0, 10 3, 0 6" fill="#424242"/>
    </marker>
    <marker id="arrowhead-red" markerWidth="10" markerHeight="10" refX="9" refY="3" orient="auto">
      <polygon points="0 0, 10 3, 0 6" fill="#d32f2f"/>
    </marker>
    <marker id="arrowhead-red-start" markerWidth="10" markerHeight="10" refX="1" refY="3" orient="auto-start-reverse">
      <polygon points="0 0, 10 3, 0 6" fill="#d32f2f"/>
    </marker>
  </defs>

  <!-- ═══════════════════════════════════════════════════ -->
  <!-- ROW 0: PDF Ingestion Pipeline                       -->
  <!-- ═══════════════════════════════════════════════════ -->

  <!-- PDF Extraction -->
  <rect x="50" y="60" width="200" height="100" rx="5" class="module-box"/>
  <text x="150" y="100" text-anchor="middle" class="label-text">PDF Extraction</text>
  <text x="150" y="120" text-anchor="middle" class="small-text">pdfplumber + chunking.py</text>
  <text x="150" y="138" text-anchor="middle" class="small-text">+ extract_images.py</text>

  <!-- Embedding -->
  <rect x="320" y="60" width="200" height="100" rx="5" class="module-box"/>
  <text x="420" y="100" text-anchor="middle" class="label-text">Embedding &amp; Indexing</text>
  <text x="420" y="120" text-anchor="middle" class="small-text">MiniLM → ChromaDB</text>

  <!-- Chroma DB -->
  <rect x="590" y="60" width="180" height="100" rx="5" class="data-box"/>
  <text x="680" y="90" text-anchor="middle" class="label-text">ChromaDB</text>
  <text x="680" y="110" text-anchor="middle" class="small-text">(Vector Store)</text>
  <text x="680" y="128" text-anchor="middle" class="small-text">Note embeddings</text>

  <!-- PDF → Embedding → ChromaDB arrows -->
  <path d="M 250 110 L 320 110" class="arrow"/>
  <path d="M 520 110 L 590 110" class="arrow"/>

  <!-- ═══════════════════════════════════════════════════ -->
  <!-- ROW 1: Interfaces                                   -->
  <!-- ═══════════════════════════════════════════════════ -->

  <!-- Admin REST API (replaces Flutter Faculty App — no flutter faculty app in code) -->
  <rect x="50" y="230" width="220" height="90" rx="5" class="interface-box"/>
  <text x="160" y="258" text-anchor="middle" class="label-text">Admin REST API</text>
  <text x="160" y="278" text-anchor="middle" class="small-text">• Schedule sessions</text>
  <text x="160" y="293" text-anchor="middle" class="small-text">• Upload notes &amp; generate lecture</text>

  <!-- Student App -->
  <rect x="310" y="230" width="220" height="90" rx="5" class="interface-box"/>
  <text x="420" y="258" text-anchor="middle" class="label-text">Flutter Student App</text>
  <text x="420" y="278" text-anchor="middle" class="small-text">• Join session · ask doubts</text>
  <text x="420" y="293" text-anchor="middle" class="small-text">• Listen to lecture audio</text>

  <!-- ═══════════════════════════════════════════════════ -->
  <!-- ROW 2: MCP Integration                              -->
  <!-- ═══════════════════════════════════════════════════ -->

  <rect x="50" y="390" width="680" height="90" rx="5" class="process-box"/>
  <text x="390" y="418" text-anchor="middle" class="label-text">MCP Integration Module (student_backend — port 5000)</text>
  <text x="160" y="443" text-anchor="middle" class="small-text">• Session Management</text>
  <text x="360" y="443" text-anchor="middle" class="small-text">• Note Upload &amp; Lecture Gen</text>
  <text x="555" y="443" text-anchor="middle" class="small-text">• Doubt Handling</text>
  <text x="390" y="463" text-anchor="middle" class="small-text">• Attendance &amp; Engagement Logging</text>

  <!-- Admin →  MCP arrow -->
  <path d="M 160 320 L 160 360 L 250 360 L 250 390" class="arrow"/>
  <!-- Student → MCP arrow -->
  <path d="M 420 320 L 420 360 L 420 390" class="arrow"/>

  <!-- ═══════════════════════════════════════════════════ -->
  <!-- ROW 3: RAG Engine (right column)                    -->
  <!-- ═══════════════════════════════════════════════════ -->

  <!-- RAG Engine outer box -->
  <rect x="800" y="60" width="460" height="420" rx="5" class="module-box"/>
  <text x="1030" y="90" text-anchor="middle" class="label-text">RAG Engine / Tutor API (app.py — port 5001)</text>

  <!-- Drafter -->
  <rect x="820" y="110" width="180" height="70" rx="5" class="process-box"/>
  <text x="910" y="138" text-anchor="middle" class="label-text">Drafter LLM</text>
  <text x="910" y="158" text-anchor="middle" class="small-text">Gemma 3 4B (Ollama) — 2 drafts</text>

  <!-- Verifier -->
  <rect x="1060" y="110" width="180" height="70" rx="5" class="process-box"/>
  <text x="1150" y="133" text-anchor="middle" class="label-text">Verifier</text>
  <text x="1150" y="151" text-anchor="middle" class="small-text">Patronus Lynx API</text>
  <text x="1150" y="169" text-anchor="middle" class="small-text">hallucination check</text>

  <!-- Kokoro TTS -->
  <rect x="820" y="210" width="180" height="60" rx="5" class="process-box"/>
  <text x="910" y="235" text-anchor="middle" class="label-text">Kokoro TTS</text>
  <text x="910" y="253" text-anchor="middle" class="small-text">af_sarah voice — local</text>

  <!-- Teaching Content -->
  <rect x="870" y="300" width="280" height="60" rx="5" class="data-box"/>
  <text x="1010" y="325" text-anchor="middle" class="label-text">Teaching Content</text>
  <text x="1010" y="343" text-anchor="middle" class="small-text">Lecture text &amp; doubt answers</text>

  <!-- Drafter → Verifier -->
  <path d="M 1000 145 L 1060 145" class="arrow"/>

  <!-- Verifier → Teaching Content -->
  <path d="M 1150 180 L 1150 270 L 1010 270 L 1010 300" class="arrow"/>

  <!-- Drafter → TTS -->
  <path d="M 910 180 L 910 210" class="arrow"/>

  <!-- TTS → Teaching Content -->
  <path d="M 910 270 L 910 300 L 870 300" class="arrow"/>

  <!-- ChromaDB → Drafter (RAG retrieval) -->
  <path d="M 680 110 L 750 110 L 750 145 L 820 145" class="arrow"/>

  <!-- Teaching Content → MCP (results back to student) -->
  <path d="M 870 330 L 780 330 L 780 435 L 730 435" class="arrow"/>

  <!-- ═══════════════════════════════════════════════════ -->
  <!-- ROW 4: Tutor Agent (dashed container)               -->
  <!-- ═══════════════════════════════════════════════════ -->

  <rect x="50" y="560" width="680" height="280" rx="8" class="dashed-container"/>
  <text x="65" y="580" class="section-label">Tutor Agent (/api/doubt — inside port 5001)</text>

  <!-- Context Memory stored FIRST in doubt flow -->
  <rect x="70" y="588" width="180" height="40" rx="5" class="data-box"/>
  <text x="160" y="613" text-anchor="middle" class="label-text">Context Memory</text>

  <!-- Adaptive Router -->
  <rect x="70" y="650" width="160" height="65" rx="5" class="agent-box"/>
  <text x="150" y="674" text-anchor="middle" class="label-text">Adaptive Router</text>
  <text x="150" y="692" text-anchor="middle" class="small-text">Qwen 2.5 7B (Ollama)</text>
  <text x="150" y="706" text-anchor="middle" class="small-text">concept/app/misc</text>

  <!-- Misconception Detector -->
  <rect x="248" y="650" width="155" height="65" rx="5" class="agent-box"/>
  <text x="325" y="674" text-anchor="middle" class="label-text">Misconception Det.</text>
  <text x="325" y="692" text-anchor="middle" class="small-text">LLM yes/no check</text>

  <!-- Syllabus Guard -->
  <rect x="420" y="650" width="135" height="65" rx="5" class="agent-box"/>
  <text x="487" y="674" text-anchor="middle" class="label-text">Syllabus Guard</text>
  <text x="487" y="692" text-anchor="middle" class="small-text">keyword in-scope</text>
  <text x="487" y="706" text-anchor="middle" class="small-text">check</text>

  <!-- Pedagogical Agent -->
  <rect x="573" y="650" width="135" height="65" rx="5" class="agent-box"/>
  <text x="640" y="674" text-anchor="middle" class="label-text">Pedagogical Ag.</text>
  <text x="640" y="692" text-anchor="middle" class="small-text">teacher tone wrap</text>

  <!-- Tool Selector -->
  <rect x="70" y="745" width="640" height="60" rx="5" class="agent-box"/>
  <text x="390" y="769" text-anchor="middle" class="label-text">Tool Selector</text>
  <text x="200" y="789" text-anchor="middle" class="small-text">concept / misconception → RAG tool</text>
  <text x="530" y="789" text-anchor="middle" class="small-text">application (needs_external) → Wikipedia tool</text>

  <!-- Tutor agent internal arrows -->
  <!-- Context Memory → Adaptive Router -->
  <path d="M 160 628 L 160 650" class="arrow"/>
  <!-- Adaptive Router → Misconception Detector -->
  <path d="M 230 682 L 248 682" class="arrow"/>
  <!-- Misconception Detector → Syllabus Guard -->
  <path d="M 403 682 L 420 682" class="arrow"/>
  <!-- Syllabus Guard → Pedagogical Agent -->
  <path d="M 555 682 L 573 682" class="arrow"/>
  <!-- Agents → Tool Selector -->
  <path d="M 390 715 L 390 745" class="arrow"/>

  <!-- MCP → Tutor Agent (doubt request enters, store memory first) -->
  <path d="M 390 480 L 390 530 L 160 530 L 160 588" class="arrow"/>

  <!-- ═══════════════════════════════════════════════════ -->
  <!-- ROW 5: External connections from Tool Selector     -->
  <!-- ═══════════════════════════════════════════════════ -->

  <!-- Tool Selector → RAG Engine (conditional dashed) -->
  <path d="M 390 805 L 390 860 L 1010 860 L 1010 360" class="arrow-dash"/>

  <!-- Tool Selector → Wikipedia (conditional dashed) -->
  <path d="M 710 775 L 760 775 L 760 870 L 1145 870 L 1145 680" class="arrow-dash"/>

  <!-- ═══════════════════════════════════════════════════ -->
  <!-- ROW 5: Database + MCP Tools (right side)            -->
  <!-- ═══════════════════════════════════════════════════ -->

  <!-- SQLite Database -->
  <rect x="800" y="560" width="200" height="130" rx="5" class="data-box"/>
  <text x="900" y="588" text-anchor="middle" class="label-text">SQLite Database</text>
  <text x="900" y="608" text-anchor="middle" class="small-text">• Student details</text>
  <text x="900" y="623" text-anchor="middle" class="small-text">• Session logs</text>
  <text x="900" y="638" text-anchor="middle" class="small-text">• Attendance records</text>
  <text x="900" y="653" text-anchor="middle" class="small-text">• Engagement logs</text>
  <text x="900" y="668" text-anchor="middle" class="small-text">• Lecture text &amp; images</text>

  <!-- Wikipedia Tool -->
  <rect x="1050" y="560" width="200" height="100" rx="5" class="data-box"/>
  <text x="1150" y="588" text-anchor="middle" class="label-text">Wikipedia Tool</text>
  <text x="1150" y="608" text-anchor="middle" class="small-text">wikipedia Python lib</text>
  <text x="1150" y="626" text-anchor="middle" class="small-text">• External knowledge</text>
  <text x="1150" y="644" text-anchor="middle" class="small-text">for application Qs</text>

  <!-- MCP Integration ↔ SQLite Database (bidirectional) -->
  <path d="M 200 435 L 200 500 L 900 500 L 900 560" class="arrow-bi"/>

  <!-- ═══════════════════════════════════════════════════ -->
  <!-- NOTES / labels                                      -->
  <!-- ═══════════════════════════════════════════════════ -->
  <text x="760" y="338" text-anchor="middle" class="small-text" fill="#d32f2f">results</text>
  <text x="760" y="446" text-anchor="middle" class="small-text" fill="#424242">lecture/answers</text>

  <!-- ═══════════════════════════════════════════════════ -->
  <!-- LEGEND                                              -->
  <!-- ═══════════════════════════════════════════════════ -->
  <rect x="50" y="910" width="15" height="15" rx="2" fill="#e3f2fd" stroke="#1976d2" stroke-width="1.5"/>
  <text x="72" y="922" class="small-text">RAG pipeline</text>
  <rect x="180" y="910" width="15" height="15" rx="2" fill="#f3e5f5" stroke="#7b1fa2" stroke-width="1.5"/>
  <text x="202" y="922" class="small-text">Interfaces</text>
  <rect x="300" y="910" width="15" height="15" rx="2" fill="#fff3e0" stroke="#f57c00" stroke-width="1.5"/>
  <text x="322" y="922" class="small-text">MCP / processing</text>
  <rect x="460" y="910" width="15" height="15" rx="2" fill="#e8eaf6" stroke="#3949ab" stroke-width="1.5"/>
  <text x="482" y="922" class="small-text">Tutor agent</text>
  <rect x="580" y="910" width="15" height="15" rx="2" fill="#e8f5e9" stroke="#388e3c" stroke-width="1.5"/>
  <text x="602" y="922" class="small-text">Data / storage</text>
  <line x1="700" y1="917" x2="730" y2="917" stroke="#d32f2f" stroke-width="2"/>
  <polygon points="727 914, 733 917, 727 920" fill="#d32f2f"/>
  <polygon points="703 914, 697 917, 703 920" fill="#d32f2f"/>
  <text x="738" y="922" class="small-text">Bidirectional</text>
  <line x1="840" y1="917" x2="870" y2="917" stroke="#424242" stroke-width="1.5" stroke-dasharray="4 2"/>
  <text x="878" y="922" class="small-text">Conditional path</text>

</svg>
